#!OML:ASF E:\Style4\Style4.ASF
:FULLY-SPECIFIED
:DEGREES
2866
root -0.3266 17.6152 -2.47037 5.99956 3.30274 3.01987
lowerback 18.0766 1.99833 0.496162
upperback 9.67444 2.74987 2.73434
thorax 0.131411 1.33128 2.12003
lowerneck -2.03055 -1.66275 -4.23365
upperneck 4.64718 -1.81712 -4.92944
head 1.78633 -1.07842 -0.870083
rclavicle -7.95139e-015 9.54166e-015
rhumerus 48.2913 26.8881 -52.1362
rradius 45.7477
rwrist 4.18664
rhand 27.143 5.99333
rfingers 7.12502
rthumb 51.121 -14.6203
lclavicle -7.95139e-015 9.54166e-015
lhumerus 64.2256 8.77249 23.6966
lradius 63.2508
lwrist 10.1401
lhand 27.1091 34.7932
lfingers 7.12502
lthumb 51.0902 55.4242
rfemur -29.6948 -7.86307 17.7458
rtibia 39.6494
rfoot -15.0308 -15.3319
rtoes -10.1117
lfemur -28.0607 2.43176 -20.8283
ltibia 34.1455
lfoot -12.3341 5.1352
ltoes -10.4048
2867
root -0.321749 17.5963 -2.48136 5.90374 3.10171 2.9566
lowerback 18.1695 1.98436 0.420665
upperback 9.78526 2.7143 2.56064
thorax 0.209005 1.3142 1.98574
lowerneck -2.2152 -1.54743 -4.05407
upperneck 4.70888 -1.66769 -4.68383
head 1.83967 -1.00057 -0.822341
rclavicle -1.98785e-014 -2.06736e-014
rhumerus 48.5881 26.6618 -52.2017
rradius 45.6706
rwrist 4.14922
rhand 27.2738 5.99546
rfingers 7.12502
rthumb 51.2401 -14.551
lclavicle -1.98785e-014 -2.06736e-014
lhumerus 64.7592 7.88333 24.6702
lradius 63.7972
lwrist 9.59579
lhand 27.6734 34.472
lfingers 7.12502
lthumb 51.6035 54.8103
rfemur -29.8837 -7.89468 17.8197
rtibia 39.9992
rfoot -15.1026 -15.1781
rtoes -10.0602
lfemur -28.2487 2.52644 -20.7412
ltibia 34.6059
lfoot -12.572 5.06505
ltoes -9.45674
2868
root -0.315502 17.5797 -2.48865 5.81482 2.91103 2.95425
lowerback 18.1739 1.94266 0.267452
upperback 9.92497 2.62995 2.40133
thorax 0.360539 1.2694 1.92254
lowerneck -2.41991 -1.39523 -3.97506
upperneck 4.79907 -1.46358 -4.43262
head 1.907 -0.897742 -0.754845
rclavicle 9.54166e-015 1.59028e-015
rhumerus 48.972 26.5093 -52.1772
rradius 45.5674
rwrist 4.12517
rhand 27.2068 6.1248
rfingers 7.12502
rthumb 51.1791 -14.4561
lclavicle 9.54166e-015 1.59028e-015
lhumerus 65.12 7.00819 25.6313
lradius 64.3196
lwrist 8.91023
lhand 28.4264 34.194
lfingers 7.12502
lthumb 52.2868 54.1277
rfemur -30.047 -7.97654 17.8283
rtibia 40.3287
rfoot -15.1289 -15.0075
rtoes -10.4369
lfemur -28.4049 2.62534 -20.7549
ltibia 35.0583
lfoot -12.8217 5.10796
ltoes -9.63752
2869
root -0.31087 17.5621 -2.49392 5.71807 2.6848 2.95385
lowerback 18.1182 1.91193 0.0485285
upperback 10.0921 2.54955 2.24541
thorax 0.569546 1.22336 1.90156
lowerneck -2.55974 -1.24557 -3.89818
upperneck 4.81972 -1.27031 -4.19703
head 1.93977 -0.797518 -0.690314
rclavicle 1.19271e-014 5.56597e-015
rhumerus 49.37 26.4614 -52.1011
rradius 45.5144
rwrist 4.11745
rhand 27.0313 6.15151
rfingers 7.12502
rthumb 51.0193 -14.5191
lclavicle 1.19271e-014 5.56597e-015
lhumerus 64.8584 6.22055 26.2266
lradius 65.4032
lwrist 8.63219
lhand 28.4404 34.3484
lfingers 7.12502
lthumb 52.2995 54.2745
rfemur -30.1902 -7.93251 17.8191
rtibia 40.6424
rfoot -15.1654 -14.8768
rtoes -10.8205
lfemur -28.537 2.75797 -20.7661
ltibia 35.5055
lfoot -13.0295 5.13411
ltoes -9.4333
2870
root -0.305306 17.5462 -2.49918 5.5789 2.532 2.92667
lowerback 18.1638 1.86589 -0.0650777
upperback 10.2187 2.46713 2.05688
thorax 0.689186 1.18171 1.78295
lowerneck -2.63218 -1.12509 -3.78384
upperneck 4.81295 -1.12763 -3.87584
head 1.9512 -0.71807 -0.605282
rclavicle -8.74653e-015 1.59028e-014
rhumerus 49.5935 26.3621 -52.1965
rradius 45.4702
rwrist 4.14406
rhand 27.0855 6.07106
rfingers 7.12502
rthumb 51.0687 -14.5719
lclavicle -8.74653e-015 1.59028e-014
lhumerus 64.5986 5.27757 26.7842
lradius 66.4645
lwrist 8.35997
lhand 28.3469 34.3962
lfingers 7.12502
lthumb 52.2147 54.3734
rfemur -30.2568 -7.90076 17.8241
rtibia 40.9387
rfoot -15.2569 -14.7471
rtoes -10.8601
lfemur -28.611 2.91143 -20.7585
ltibia 35.9134
lfoot -13.2048 5.08868
ltoes -9.48429
2871
root -0.299471 17.5313 -2.50558 5.4549 2.42655 2.90224
lowerback 18.1365 1.80053 -0.194894
upperback 10.3962 2.35744 1.89488
thorax 0.900216 1.1246 1.70929
lowerneck -2.82787 -0.996695 -3.64588
upperneck 4.87951 -0.964596 -3.58538
head 2.00834 -0.631737 -0.534825
rclavicle -7.95139e-015 3.97569e-015
rhumerus 49.8813 26.2004 -52.3099
rradius 45.3952
rwrist 4.28061
rhand 27.1527 6.10264
rfingers 7.12502
rthumb 51.1299 -14.506
lclavicle -7.95139e-015 3.97569e-015
lhumerus 64.3557 4.31021 27.3857
lradius 67.4706
lwrist 7.77581
lhand 28.6425 34.3595
lfingers 7.12502
lthumb 52.4824 54.1741
rfemur -30.3282 -7.87882 17.8309
rtibia 41.2283
rfoot -15.3066 -14.6816
rtoes -11.0867
lfemur -28.692 2.99828 -20.7528
ltibia 36.2874
lfoot -13.3636 5.1126
ltoes -10.0338
2872
root -0.293358 17.5187 -2.51172 5.31532 2.27909 2.93954
lowerback 17.7671 1.77813 -0.42593
upperback 10.822 2.28781 1.80573
thorax 1.54788 1.07762 1.77757
lowerneck -3.03655 -0.905055 -3.5846
upperneck 4.64772 -0.85395 -3.40321
head 1.97022 -0.568065 -0.48455
rclavicle 1.82882e-014 1.59028e-015
rhumerus 50.4867 25.9076 -52.0604
rradius 45.3396
rwrist 4.36611
rhand 27.2709 6.15273
rfingers 7.12502
rthumb 51.2375 -14.3952
lclavicle 1.82882e-014 1.59028e-015
lhumerus 63.9214 3.58586 27.901
lradius 68.6817
lwrist 7.29251
lhand 28.6192 34.4363
lfingers 7.12502
lthumb 52.4613 54.2639
rfemur -30.3773 -7.79957 17.7556
rtibia 41.5074
rfoot -15.3315 -14.6473
rtoes -11.3232
lfemur -28.7213 3.01856 -20.7984
ltibia 36.6219
lfoot -13.589 5.13278
ltoes -9.48967
2873
root -0.2864 17.5053 -2.51856 5.22878 2.09741 2.93344
lowerback 17.8822 1.7483 -0.508451
upperback 10.8874 2.23411 1.6513
thorax 1.56483 1.05089 1.66837
lowerneck -3.13623 -0.810004 -3.59352
upperneck 4.68069 -0.734859 -3.11962
head 1.99958 -0.504053 -0.391356
rclavicle -1.27222e-014 -7.15625e-015
rhumerus 50.6509 25.9033 -52.032
rradius 45.3046
rwrist 4.38443
rhand 27.3258 6.11173
rfingers 7.12502
rthumb 51.2875 -14.4078
lclavicle -1.27222e-014 -7.15625e-015
lhumerus 63.2016 2.46655 28.3049
lradius 69.8409
lwrist 6.80899
lhand 28.5201 34.5115
lfingers 7.12502
lthumb 52.3716 54.3938
rfemur -30.498 -7.69256 17.7319
rtibia 41.7792
rfoot -15.3997 -14.6043
rtoes -11.2689
lfemur -28.7969 3.1378 -20.8162
ltibia 36.9197
lfoot -13.7722 5.10953
ltoes -9.21218
2874
root -0.28163 17.492 -2.52149 5.14589 1.87813 2.95943
lowerback 17.9516 1.74441 -0.669824
upperback 10.9677 2.20264 1.50513
thorax 1.61772 1.03091 1.61025
lowerneck -3.24894 -0.704248 -3.69946
upperneck 4.70876 -0.598589 -2.78907
head 2.03001 -0.431813 -0.266339
rclavicle 2.38542e-014 -8.74653e-015
rhumerus 50.8524 25.9361 -51.85
rradius 45.3386
rwrist 4.26095
rhand 27.3909 6.00985
rfingers 7.12502
rthumb 51.3467 -14.476
lclavicle 2.38542e-014 -8.74653e-015
lhumerus 62.4336 1.33555 28.7464
lradius 70.9431
lwrist 6.1918
lhand 28.5113 34.5998
lfingers 7.12502
lthumb 52.3637 54.4869
rfemur -30.5954 -7.5619 17.6841
rtibia 42.0195
rfoot -15.4325 -14.5759
rtoes -11.5209
lfemur -28.8464 3.3269 -20.8718
ltibia 37.1931
lfoot -13.8861 5.14385
ltoes -9.7379
2875
root -0.274674 17.4806 -2.52238 5.04068 1.71206 3.01662
lowerback 18.6408 1.70163 -0.896093
upperback 10.6673 2.10868 1.35442
thorax 0.942035 0.982522 1.57027
lowerneck -3.39225 -0.553627 -3.72333
upperneck 5.15618 -0.386783 -2.54121
head 2.20269 -0.331657 -0.180317
rclavicle -1.82882e-014 -9.54166e-015
rhumerus 50.6927 26.4001 -51.8657
rradius 45.3584
rwrist 4.01926
rhand 27.3871 5.98246
rfingers 7.12502
rthumb 51.3432 -14.5054
lclavicle -1.82882e-014 -9.54166e-015
lhumerus 61.2556 -0.186537 28.865
lradius 72.0368
lwrist 5.77058
lhand 28.4553 34.7191
lfingers 7.12502
lthumb 52.313 54.637
rfemur -30.6315 -7.50305 17.5837
rtibia 42.2228
rfoot -15.493 -14.5144
rtoes -11.7185
lfemur -28.8534 3.44646 -20.9587
ltibia 37.4558
lfoot -14.0334 5.16982
ltoes -10.0391
2876
root -0.267762 17.472 -2.52332 4.94944 1.62566 2.94721
lowerback 18.1947 1.68522 -0.716912
upperback 11.0705 2.11279 1.17449
thorax 1.61902 0.993494 1.29872
lowerneck -3.54459 -0.550181 -3.59871
upperneck 4.9005 -0.405277 -2.26855
head 2.14616 -0.327218 -0.115373
rclavicle -1.43125e-014 -3.18055e-015
rhumerus 51.1361 25.9743 -51.5812
rradius 45.2809
rwrist 3.84874
rhand 27.4706 5.92483
rfingers 7.12502
rthumb 51.4192 -14.5196
lclavicle -1.43125e-014 -3.18055e-015
lhumerus 60.9117 -1.12387 29.0671
lradius 72.9879
lwrist 5.23732
lhand 28.6041 34.8164
lfingers 7.12502
lthumb 52.4477 54.6523
rfemur -30.6374 -7.48026 17.6291
rtibia 42.3804
rfoot -15.547 -14.4635
rtoes -11.8154
lfemur -28.8869 3.49427 -20.9032
ltibia 37.7117
lfoot -14.1784 5.22428
ltoes -10.1188
2877
root -0.261841 17.4641 -2.52433 4.90808 1.56756 2.8745
lowerback 17.9479 1.65455 -0.604016
upperback 11.2763 2.08849 1.02157
thorax 1.97891 0.989912 1.08886
lowerneck -3.64412 -0.509618 -3.44627
upperneck 4.82134 -0.369437 -2.05274
head 2.13771 -0.300165 -0.0720243
rclavicle 8.74653e-015 3.18055e-015
rhumerus 51.3171 25.757 -51.5464
rradius 45.214
rwrist 3.91591
rhand 27.6611 5.90036
rfingers 7.12502
rthumb 51.5924 -14.4443
lclavicle 8.74653e-015 3.18055e-015
lhumerus 60.4206 -2.24879 29.3397
lradius 73.6716
lwrist 4.55689
lhand 29.0252 34.8515
lfingers 7.12502
lthumb 52.8284 54.4519
rfemur -30.6778 -7.43973 17.684
rtibia 42.5073
rfoot -15.5834 -14.4426
rtoes -11.7601
lfemur -28.9646 3.5643 -20.8445
ltibia 37.9446
lfoot -14.3653 5.14713
ltoes -9.57893
